<svg xmlns="http://www.w3.org/2000/svg" xmlns:xlink="http://www.w3.org/1999/xlink" viewBox="0 0 1054.92 661.59"><defs><style>.cls-1{fill:#fff;}.cls-2{fill:url(#linear-gradient);}.cls-3{fill:url(#linear-gradient-2);}.cls-4,.cls-8,.cls-9{opacity:0.26;}.cls-4{fill:url(#linear-gradient-3);}.cls-5{fill:url(#linear-gradient-4);}.cls-6{fill:url(#linear-gradient-5);}.cls-7{fill:url(#linear-gradient-6);}.cls-8{fill:url(#linear-gradient-7);}.cls-9{fill:url(#linear-gradient-8);}</style><linearGradient id="linear-gradient" x1="221" y1="167.45" x2="175.96" y2="-81.71" gradientUnits="userSpaceOnUse"><stop offset="0" stop-color="#833ab4"/><stop offset="0.56" stop-color="#fd1d1d"/><stop offset="1" stop-color="#fcb045"/></linearGradient><linearGradient id="linear-gradient-2" x1="280.89" y1="-148.04" x2="157.28" y2="92.67" gradientUnits="userSpaceOnUse"><stop offset="0" stop-color="#fd1d1d"/><stop offset="1" stop-color="#fcb045"/></linearGradient><linearGradient id="linear-gradient-3" x1="293.75" y1="-169.35" x2="130.98" y2="147.62" xlink:href="#linear-gradient-2"/><linearGradient id="linear-gradient-4" x1="883.9" y1="50.87" x2="927.04" y2="691.47" xlink:href="#linear-gradient-2"/><linearGradient id="linear-gradient-5" x1="973.93" y1="44.81" x2="1017.07" y2="685.41" xlink:href="#linear-gradient"/><linearGradient id="linear-gradient-6" x1="536.89" y1="730.3" x2="470.49" y2="356.83" xlink:href="#linear-gradient"/><linearGradient id="linear-gradient-7" x1="676.77" y1="711.91" x2="643.91" y2="527.04" xlink:href="#linear-gradient-2"/><linearGradient id="linear-gradient-8" x1="768.51" y1="698.46" x2="744.11" y2="561.21" xlink:href="#linear-gradient-2"/></defs><title>Asset 2</title><g id="Layer_2" data-name="Layer 2"><g id="Objects"><g id="Bg"><rect class="cls-1" width="1054.92" height="661.59"/><path class="cls-2" d="M424.68,0C403.51,43.33,375.3,75.78,341,98.8c-55.7,37.36-127.5,49.92-211.45,43.92C10.75,134.23.7,218.3,0,239.33V0H424.68Z"/><path class="cls-3" d="M0,27.31S38.81-4.4,122.5,42.29,338.34,96.91,409.7,0H0Z"/><path class="cls-4" d="M413.53,0C394,33.15,369.59,58.89,341,78.07c-79.74,34.75-149.06,37.41-215,20.23C57.75,80.54,29.32,92.53,0,100.65V0Z"/><path class="cls-5" d="M1054.92,0V661.59h-5.57q-5.34-4.23-11.28-8.7l-3-2.24c-2.23-1.66-4.52-3.33-6.87-5l-2.59-1.85q-5.37-3.82-11.15-7.75l-2.5-1.69q-3.56-2.4-7.26-4.81c-1.23-.81-2.48-1.61-3.74-2.42l-3.81-2.43-3.89-2.44q-2.26-1.41-4.58-2.82c-1.13-.69-2.26-1.38-3.4-2.06q-2-1.2-4-2.39c-2.29-1.37-4.61-2.72-7-4.07q-1.59-.93-3.21-1.83c-1.05-.61-2.11-1.2-3.18-1.79s-2.26-1.27-3.4-1.89l-.83-.46q-1.7-.95-3.42-1.86c-1-.57-2.06-1.12-3.1-1.67s-2.21-1.19-3.33-1.77-2.25-1.19-3.38-1.77-2.29-1.19-3.45-1.78l-2.83-1.44c-1.15-.59-2.32-1.17-3.49-1.75l-4.46-2.2-4.51-2.19-.66-.31q-2.32-1.11-4.68-2.21l-4.8-2.22q-2.41-1.11-4.86-2.2t-4.92-2.18q-2.47-1.1-5-2.16L903,575.59c-1.25-.53-2.51-1.06-3.78-1.57-1.5-.63-3-1.24-4.53-1.85q-1.78-.74-3.6-1.44c-1.34-.54-2.68-1.07-4-1.59s-3-1.15-4.47-1.72L878.9,566l-.91-.34c-1.61-.6-3.24-1.2-4.87-1.78-.29-.11-.57-.22-.86-.31-1.16-.43-2.32-.85-3.5-1.26l-2.71-1c-1.26-.45-2.52-.88-3.79-1.31l-1.08-.38c-1.7-.58-3.4-1.15-5.12-1.71l-.35-.12c-1.86-.62-3.72-1.23-5.6-1.82l-.08,0c-1.47-.48-2.95-.95-4.43-1.4l-2.16-.68-5.14-1.56c-1.94-.59-3.9-1.16-5.87-1.73l-.19,0q-3-.87-6-1.69c-2-.57-4.06-1.13-6.11-1.67s-4.11-1.1-6.18-1.62-4.15-1.06-6.24-1.57-4.19-1-6.31-1.52q-6.25-1.5-12.65-2.86l-.2,0q-6.23-1.33-12.58-2.56l-.57-.12c-2.15-.41-4.31-.82-6.49-1.21q-6.35-1.17-12.8-2.2-7.1-1.15-14.33-2.16c256.83-26,311.91-182.32,277.24-301.56a234.54,234.54,0,0,0-31.36-66.76C933,83.15,947.59,29,965.66,0Z"/><path class="cls-6" d="M1054.92,0V661.59h-5.57q-5.34-4.23-11.28-8.7l-3-2.24c-2.23-1.66-4.52-3.33-6.87-5l-2.59-1.85q-5.37-3.82-11.15-7.75l-2.5-1.69q-3.56-2.4-7.26-4.81c-1.23-.81-2.48-1.61-3.74-2.42l-3.81-2.43-3.89-2.44q-2.26-1.41-4.58-2.82c-1.13-.69-2.26-1.38-3.4-2.06q-2-1.2-4-2.39c-2.29-1.37-4.61-2.72-7-4.07q-1.59-.93-3.21-1.83c-1.05-.61-2.11-1.2-3.18-1.79s-2.26-1.27-3.4-1.89l-.83-.46q-1.7-.95-3.42-1.86c-1-.57-2.06-1.12-3.1-1.67s-2.21-1.19-3.33-1.77-2.25-1.19-3.38-1.77-2.29-1.19-3.45-1.78l-2.83-1.44c-1.15-.59-2.32-1.17-3.49-1.75l-4.46-2.2-4.51-2.19-.66-.31q-2.32-1.11-4.68-2.21c135.26-96.31,143.74-245.16,92.69-356.13a234.54,234.54,0,0,0-31.36-66.76C933,83.15,947.59,29,965.66,0Z"/><path class="cls-7" d="M1049.35,661.59H0V504c0,136.59,202.4,149.47,365.53,75.7C511.12,525,637.25,516.85,741.81,531.4,889.2,551.91,993.71,617.55,1049.35,661.59Z"/><path class="cls-8" d="M1023,661.46l-1.34.13h-709q10.36-5.46,20.47-11.42c137.57-69.26,261.81-90.28,367.56-86.54a657.82,657.82,0,0,1,307.25,88.75Q1015.91,657,1023,661.46Z"/><path class="cls-9" d="M1023,661.46l-1.34.13H500.92c79.44-45.77,155.81-66.38,226.21-71.1,113-7.57,210.6,25.82,280.81,61.89Q1015.91,657,1023,661.46Z"/></g></g></g></svg>